<svg width="18" height="18" viewBox="0 0 18 18" fill="none" xmlns="http://www.w3.org/2000/svg">
<path fill-rule="evenodd" clip-rule="evenodd" d="M2.61453 12.3306C3.68141 13.1566 4.90355 13.5546 6.11416 13.557C6.53027 14.814 7.28646 15.9476 8.3533 16.7737C11.1266 18.9207 14.949 18.1755 16.8908 15.1091C18.8327 12.0428 18.1588 7.81647 15.3855 5.66939C14.3186 4.8434 13.0965 4.44546 11.8858 4.44304C11.4697 3.18604 10.7136 2.05234 9.64666 1.22635C6.87338 -0.920735 3.051 -0.175518 1.10913 2.89083C-0.832731 5.95719 -0.158743 10.1835 2.61453 12.3306ZM3.61912 10.7442C4.2725 11.2502 5.00742 11.5313 5.74876 11.6022C5.67324 10.1353 6.0266 8.63083 6.84794 7.33387C7.66929 6.0369 8.82707 5.1552 10.0996 4.73195C9.78572 3.98597 9.29541 3.31853 8.64203 2.81268C6.66115 1.27904 3.93088 1.81134 2.54384 4.0016C1.15679 6.19185 1.63821 9.2107 3.61912 10.7442ZM14.3809 7.2557C13.7275 6.74985 12.9926 6.46876 12.2512 6.39779C12.3267 7.86468 11.9734 9.36921 11.152 10.6661C10.3307 11.9631 9.17298 12.8448 7.90043 13.268C8.21433 14.014 8.70456 14.6814 9.35793 15.1874C11.3388 16.7209 14.0692 16.1886 15.4561 13.9984C16.8432 11.8082 16.3618 8.78934 14.3809 7.2557Z" fill="#02291C"/>
</svg>
