<svg width="79" height="11" viewBox="0 0 79 11" fill="none" xmlns="http://www.w3.org/2000/svg">
<path fill-rule="evenodd" clip-rule="evenodd" d="M0 5.10505V10.2101H39.5H79V5.10505V0H39.5H0V5.10505ZM48.7388 3.34035C48.7388 3.3519 48.7886 3.36135 48.8495 3.36135C48.9103 3.36135 48.9601 3.3708 48.9601 3.38235C48.9601 3.3939 48.9974 3.40335 49.0431 3.40335C49.0887 3.40335 49.1261 3.4128 49.1261 3.42435C49.1261 3.4359 49.1634 3.4454 49.209 3.4454C49.2547 3.4454 49.2921 3.45485 49.2921 3.4664C49.2921 3.47795 49.3142 3.4874 49.3412 3.4874C49.3683 3.4874 49.4084 3.5063 49.4303 3.5294C49.4523 3.5525 49.4923 3.57145 49.5194 3.57145C49.5465 3.57145 49.5686 3.5809 49.5686 3.59245C49.5686 3.604 49.5874 3.61345 49.6104 3.61345C49.6636 3.61345 50.2325 4.04395 50.2325 4.08415C50.2325 4.10065 50.248 4.11805 50.2668 4.12285C50.3098 4.1337 50.2276 4.2017 50.1714 4.2017C50.1509 4.2017 50.1162 4.2206 50.0942 4.2437C50.0722 4.2668 50.0349 4.2857 50.0112 4.2857C49.9875 4.2857 49.9502 4.3046 49.9282 4.32775C49.9063 4.35085 49.8662 4.36975 49.8391 4.36975C49.8121 4.36975 49.79 4.3792 49.79 4.39075C49.79 4.4023 49.765 4.41175 49.7346 4.41175C49.7036 4.41175 49.6793 4.39775 49.6793 4.3799C49.6793 4.3412 49.2797 4.0336 49.2294 4.0336C49.2097 4.0336 49.1757 4.0147 49.1537 3.9916C49.1317 3.9685 49.0917 3.9496 49.0646 3.9496C49.0375 3.9496 49.0154 3.94015 49.0154 3.92855C49.0154 3.917 48.9781 3.90755 48.9324 3.90755C48.8868 3.90755 48.8495 3.8981 48.8495 3.88655C48.8495 3.875 48.8121 3.86555 48.7664 3.86555C48.7208 3.86555 48.6835 3.8561 48.6835 3.84455C48.6835 3.83155 48.536 3.82355 48.2962 3.82355C48.0565 3.82355 47.909 3.83155 47.909 3.84455C47.909 3.8561 47.8716 3.86555 47.826 3.86555C47.7803 3.86555 47.743 3.875 47.743 3.88655C47.743 3.8981 47.7181 3.90755 47.6877 3.90755C47.6573 3.90755 47.6323 3.917 47.6323 3.92855C47.6323 3.94015 47.6074 3.9496 47.577 3.9496C47.5466 3.9496 47.5217 3.95905 47.5217 3.9706C47.5217 3.98215 47.4968 3.9916 47.4664 3.9916C47.4359 3.9916 47.4111 4.00105 47.4111 4.0126C47.4111 4.02415 47.3922 4.0336 47.3691 4.0336C47.318 4.0336 46.9685 4.295 46.9685 4.3332C46.9685 4.3482 46.9436 4.3741 46.9132 4.39075C46.8827 4.4074 46.8579 4.43785 46.8579 4.4584C46.8579 4.47895 46.8454 4.4958 46.8302 4.4958C46.8149 4.4958 46.8025 4.5147 46.8025 4.5378C46.8025 4.5609 46.7901 4.57985 46.7748 4.57985C46.7596 4.57985 46.7472 4.59875 46.7472 4.62185C46.7472 4.64495 46.7348 4.66385 46.7195 4.66385C46.7043 4.66385 46.6919 4.69225 46.6919 4.7269C46.6919 4.76155 46.6795 4.7899 46.6642 4.7899C46.6472 4.7899 46.6365 4.89495 46.6365 5.06305C46.6365 5.2311 46.6472 5.33615 46.6642 5.33615C46.6795 5.33615 46.6919 5.37395 46.6919 5.42015C46.6919 5.4664 46.7043 5.5042 46.7195 5.5042C46.7348 5.5042 46.7472 5.5231 46.7472 5.5462C46.7472 5.56935 46.7596 5.58825 46.7748 5.58825C46.7901 5.58825 46.8025 5.60715 46.8025 5.63025C46.8025 5.65335 46.8149 5.67225 46.8302 5.67225C46.8454 5.67225 46.8579 5.6891 46.8579 5.70965C46.8579 5.7302 46.8827 5.76065 46.9132 5.7773C46.9436 5.79395 46.9685 5.8199 46.9685 5.8349C46.9685 5.87055 47.2607 6.09245 47.3076 6.09245C47.3273 6.09245 47.3615 6.11135 47.3834 6.13445C47.4053 6.15755 47.4454 6.17645 47.4725 6.17645C47.4995 6.17645 47.5217 6.1859 47.5217 6.1975C47.5217 6.20905 47.5466 6.2185 47.577 6.2185C47.6074 6.2185 47.6323 6.22795 47.6323 6.2395C47.6323 6.25105 47.6573 6.2605 47.6877 6.2605C47.7181 6.2605 47.743 6.26995 47.743 6.2815C47.743 6.29305 47.7928 6.3025 47.8537 6.3025C47.9145 6.3025 47.9643 6.31195 47.9643 6.32355C47.9643 6.33635 48.0934 6.34455 48.2962 6.34455C48.4991 6.34455 48.6281 6.33635 48.6281 6.32355C48.6281 6.31195 48.678 6.3025 48.7388 6.3025C48.7997 6.3025 48.8495 6.29305 48.8495 6.2815C48.8495 6.26995 48.8743 6.2605 48.9048 6.2605C48.9352 6.2605 48.9601 6.25105 48.9601 6.2395C48.9601 6.22795 48.985 6.2185 49.0154 6.2185C49.0458 6.2185 49.0707 6.20905 49.0707 6.1975C49.0707 6.1859 49.0929 6.17645 49.12 6.17645C49.147 6.17645 49.1871 6.15755 49.209 6.13445C49.231 6.11135 49.2651 6.09245 49.2849 6.09245C49.3352 6.09245 49.624 5.8692 49.624 5.8303C49.624 5.8127 49.6364 5.7983 49.6516 5.7983C49.6682 5.7983 49.6793 5.7143 49.6793 5.58825V5.37815H48.9324H48.1856V5.14705V4.91595H49.2643H50.3431V5.84035V6.7647H50.0389H49.7346V6.61765C49.7346 6.4638 49.7179 6.4427 49.6516 6.5126C49.6297 6.5357 49.5923 6.5546 49.5686 6.5546C49.5449 6.5546 49.5076 6.57355 49.4857 6.59665C49.4637 6.61975 49.4237 6.63865 49.3965 6.63865C49.3695 6.63865 49.3474 6.6481 49.3474 6.65965C49.3474 6.6712 49.3225 6.68065 49.2921 6.68065C49.2616 6.68065 49.2367 6.69015 49.2367 6.7017C49.2367 6.71325 49.1994 6.7227 49.1537 6.7227C49.108 6.7227 49.0707 6.73215 49.0707 6.7437C49.0707 6.75525 49.0334 6.7647 48.9878 6.7647C48.9421 6.7647 48.9048 6.77415 48.9048 6.7857C48.9048 6.79725 48.855 6.8067 48.7941 6.8067C48.7333 6.8067 48.6835 6.8162 48.6835 6.82775C48.6835 6.84065 48.5452 6.84875 48.3239 6.84875C48.1026 6.84875 47.9643 6.84065 47.9643 6.82775C47.9643 6.8162 47.902 6.8067 47.826 6.8067C47.7499 6.8067 47.6877 6.79725 47.6877 6.7857C47.6877 6.77415 47.6504 6.7647 47.6047 6.7647C47.5591 6.7647 47.5217 6.75525 47.5217 6.7437C47.5217 6.73215 47.4844 6.7227 47.4387 6.7227C47.3931 6.7227 47.3558 6.71325 47.3558 6.7017C47.3558 6.69015 47.3309 6.68065 47.3004 6.68065C47.27 6.68065 47.2451 6.6712 47.2451 6.65965C47.2451 6.6481 47.2202 6.63865 47.1898 6.63865C47.1594 6.63865 47.1344 6.6292 47.1344 6.61765C47.1344 6.6061 47.1123 6.59665 47.0853 6.59665C47.0582 6.59665 47.0181 6.57775 46.9962 6.5546C46.9742 6.5315 46.9402 6.5126 46.9205 6.5126C46.8739 6.5126 46.4153 6.16435 46.4153 6.1289C46.4153 6.11395 46.3904 6.0881 46.36 6.07145C46.3296 6.05475 46.3046 6.02435 46.3046 6.00375C46.3046 5.9832 46.2922 5.9664 46.277 5.9664C46.2617 5.9664 46.2493 5.9475 46.2493 5.92435C46.2493 5.90125 46.2369 5.88235 46.2216 5.88235C46.2064 5.88235 46.194 5.86345 46.194 5.84035C46.194 5.81725 46.1816 5.7983 46.1664 5.7983C46.1511 5.7983 46.1386 5.7794 46.1386 5.7563C46.1386 5.7332 46.1262 5.7143 46.111 5.7143C46.0958 5.7143 46.0833 5.6859 46.0833 5.65125C46.0833 5.6166 46.0709 5.58825 46.0557 5.58825C46.0405 5.58825 46.028 5.54095 46.028 5.4832C46.028 5.4254 46.0156 5.37815 46.0004 5.37815C45.9831 5.37815 45.9727 5.2591 45.9727 5.06305C45.9727 4.86695 45.9831 4.7479 46.0004 4.7479C46.0156 4.7479 46.028 4.7101 46.028 4.66385C46.028 4.61765 46.0405 4.57985 46.0557 4.57985C46.0709 4.57985 46.0833 4.55145 46.0833 4.5168C46.0833 4.48215 46.0958 4.4538 46.111 4.4538C46.1262 4.4538 46.1386 4.43485 46.1386 4.41175C46.1386 4.38865 46.1511 4.36975 46.1664 4.36975C46.1816 4.36975 46.194 4.34345 46.194 4.31135C46.194 4.2771 46.2168 4.2405 46.2493 4.2227C46.2797 4.20605 46.3046 4.17765 46.3046 4.15965C46.3046 4.14165 46.3296 4.1133 46.36 4.09665C46.3904 4.08 46.4153 4.0541 46.4153 4.0392C46.4153 4.00375 46.8739 3.65545 46.9205 3.65545C46.9402 3.65545 46.9742 3.63655 46.9962 3.61345C47.0181 3.59035 47.0582 3.57145 47.0853 3.57145C47.1123 3.57145 47.1344 3.56195 47.1344 3.5504C47.1344 3.53885 47.1594 3.5294 47.1898 3.5294C47.2202 3.5294 47.2451 3.51995 47.2451 3.5084C47.2451 3.49685 47.27 3.4874 47.3004 3.4874C47.3309 3.4874 47.3558 3.47795 47.3558 3.4664C47.3558 3.45485 47.3806 3.4454 47.4111 3.4454C47.4415 3.4454 47.4664 3.4359 47.4664 3.42435C47.4664 3.4128 47.5038 3.40335 47.5494 3.40335C47.595 3.40335 47.6323 3.3939 47.6323 3.38235C47.6323 3.3708 47.6822 3.36135 47.743 3.36135C47.8038 3.36135 47.8537 3.3519 47.8537 3.34035C47.8537 3.3272 48.0196 3.31935 48.2962 3.31935C48.5728 3.31935 48.7388 3.3272 48.7388 3.34035ZM56.152 3.34035C56.152 3.3519 56.2018 3.36135 56.2626 3.36135C56.3234 3.36135 56.3733 3.3708 56.3733 3.38235C56.3733 3.3939 56.4106 3.40335 56.4562 3.40335C56.5019 3.40335 56.5392 3.4128 56.5392 3.42435C56.5392 3.4359 56.5766 3.4454 56.6222 3.4454C56.6678 3.4454 56.7052 3.45485 56.7052 3.4664C56.7052 3.47795 56.7301 3.4874 56.7605 3.4874C56.7909 3.4874 56.8158 3.49685 56.8158 3.5084C56.8158 3.51995 56.838 3.5294 56.8651 3.5294C56.8921 3.5294 56.9322 3.5483 56.9541 3.57145C56.9761 3.59455 57.0107 3.61345 57.0312 3.61345C57.0516 3.61345 57.129 3.6607 57.2031 3.7185C57.2772 3.77625 57.3573 3.82355 57.3811 3.82355C57.4049 3.82355 57.4244 3.83845 57.4244 3.8567C57.4244 3.87495 57.4741 3.9262 57.535 3.9706C57.5959 4.015 57.6456 4.06415 57.6456 4.07985C57.6456 4.09555 57.6705 4.122 57.701 4.13865C57.7314 4.1553 57.7563 4.18575 57.7563 4.2063C57.7563 4.22685 57.7688 4.2437 57.784 4.2437C57.7992 4.2437 57.8116 4.2626 57.8116 4.2857C57.8116 4.3088 57.8241 4.32775 57.8393 4.32775C57.8545 4.32775 57.867 4.34665 57.867 4.36975C57.867 4.39285 57.8794 4.41175 57.8946 4.41175C57.9098 4.41175 57.9223 4.44015 57.9223 4.4748C57.9223 4.50945 57.9347 4.5378 57.9499 4.5378C57.9651 4.5378 57.9776 4.57565 57.9776 4.62185C57.9776 4.66805 57.99 4.7059 58.0052 4.7059C58.0226 4.7059 58.0329 4.83895 58.0329 5.06305C58.0329 5.2871 58.0226 5.42015 58.0052 5.42015C57.99 5.42015 57.9776 5.458 57.9776 5.5042C57.9776 5.5504 57.9651 5.58825 57.9499 5.58825C57.9347 5.58825 57.9223 5.6166 57.9223 5.65125C57.9223 5.6859 57.9098 5.7143 57.8946 5.7143C57.8794 5.7143 57.867 5.74265 57.867 5.7773C57.867 5.81195 57.8545 5.84035 57.8393 5.84035C57.8241 5.84035 57.8116 5.85925 57.8116 5.88235C57.8116 5.90545 57.7992 5.92435 57.784 5.92435C57.7688 5.92435 57.7563 5.9412 57.7563 5.96175C57.7563 5.9823 57.7314 6.01275 57.701 6.0294C57.6705 6.04605 57.6456 6.0719 57.6456 6.08685C57.6456 6.12225 57.1317 6.5126 57.0851 6.5126C57.0654 6.5126 57.0314 6.5315 57.0094 6.5546C56.9875 6.57775 56.9474 6.59665 56.9204 6.59665C56.8933 6.59665 56.8712 6.6061 56.8712 6.61765C56.8712 6.6292 56.8462 6.63865 56.8158 6.63865C56.7854 6.63865 56.7605 6.6481 56.7605 6.65965C56.7605 6.6712 56.7356 6.68065 56.7052 6.68065C56.6747 6.68065 56.6498 6.69015 56.6498 6.7017C56.6498 6.71325 56.625 6.7227 56.5945 6.7227C56.5641 6.7227 56.5392 6.73215 56.5392 6.7437C56.5392 6.75525 56.5019 6.7647 56.4562 6.7647C56.4106 6.7647 56.3733 6.77415 56.3733 6.7857C56.3733 6.79725 56.311 6.8067 56.235 6.8067C56.1589 6.8067 56.0966 6.8162 56.0966 6.82775C56.0966 6.84065 55.9583 6.84875 55.7371 6.84875C55.5157 6.84875 55.3774 6.84065 55.3774 6.82775C55.3774 6.8162 55.3152 6.8067 55.2392 6.8067C55.1631 6.8067 55.1009 6.79725 55.1009 6.7857C55.1009 6.77415 55.0635 6.7647 55.0178 6.7647C54.9722 6.7647 54.9349 6.75525 54.9349 6.7437C54.9349 6.73215 54.8976 6.7227 54.8519 6.7227C54.8062 6.7227 54.7689 6.71325 54.7689 6.7017C54.7689 6.69015 54.744 6.68065 54.7136 6.68065C54.6831 6.68065 54.6583 6.6712 54.6583 6.65965C54.6583 6.6481 54.6334 6.63865 54.603 6.63865C54.5725 6.63865 54.5476 6.6292 54.5476 6.61765C54.5476 6.6061 54.5255 6.59665 54.4984 6.59665C54.4714 6.59665 54.4313 6.57775 54.4093 6.5546C54.3874 6.5315 54.3533 6.5126 54.3336 6.5126C54.287 6.5126 53.8284 6.16435 53.8284 6.1289C53.8284 6.11395 53.8035 6.0881 53.7731 6.07145C53.7427 6.05475 53.7178 6.02435 53.7178 6.00375C53.7178 5.9832 53.7053 5.9664 53.6901 5.9664C53.6749 5.9664 53.6625 5.9475 53.6625 5.92435C53.6625 5.90125 53.65 5.88235 53.6348 5.88235C53.6196 5.88235 53.6072 5.86345 53.6072 5.84035C53.6072 5.81725 53.5947 5.7983 53.5795 5.7983C53.5642 5.7983 53.5518 5.7794 53.5518 5.7563C53.5518 5.7332 53.5394 5.7143 53.5241 5.7143C53.5089 5.7143 53.4965 5.6859 53.4965 5.65125C53.4965 5.6166 53.4841 5.58825 53.4688 5.58825C53.4536 5.58825 53.4412 5.54095 53.4412 5.4832C53.4412 5.4254 53.4288 5.37815 53.4135 5.37815C53.3964 5.37815 53.3858 5.2661 53.3858 5.08405C53.3858 4.90195 53.3964 4.7899 53.4135 4.7899C53.4288 4.7899 53.4412 4.74265 53.4412 4.68485C53.4412 4.6271 53.4536 4.57985 53.4688 4.57985C53.4841 4.57985 53.4965 4.55145 53.4965 4.5168C53.4965 4.48215 53.5089 4.4538 53.5241 4.4538C53.5394 4.4538 53.5518 4.43485 53.5518 4.41175C53.5518 4.38865 53.5642 4.36975 53.5795 4.36975C53.5947 4.36975 53.6072 4.35085 53.6072 4.32775C53.6072 4.3046 53.6196 4.2857 53.6348 4.2857C53.65 4.2857 53.6625 4.2668 53.6625 4.2437C53.6625 4.2206 53.6749 4.2017 53.6901 4.2017C53.7053 4.2017 53.7178 4.18485 53.7178 4.1643C53.7178 4.14375 53.7427 4.1133 53.7731 4.09665C53.8035 4.08 53.8284 4.0541 53.8284 4.0392C53.8284 4.00375 54.287 3.65545 54.3336 3.65545C54.3533 3.65545 54.3874 3.63655 54.4093 3.61345C54.4313 3.59035 54.4714 3.57145 54.4984 3.57145C54.5255 3.57145 54.5476 3.56195 54.5476 3.5504C54.5476 3.53885 54.5725 3.5294 54.603 3.5294C54.6334 3.5294 54.6583 3.51995 54.6583 3.5084C54.6583 3.49685 54.6831 3.4874 54.7136 3.4874C54.744 3.4874 54.7689 3.47795 54.7689 3.4664C54.7689 3.45485 54.7938 3.4454 54.8242 3.4454C54.8546 3.4454 54.8795 3.4359 54.8795 3.42435C54.8795 3.4128 54.9169 3.40335 54.9625 3.40335C55.0082 3.40335 55.0455 3.3939 55.0455 3.38235C55.0455 3.3708 55.0953 3.36135 55.1562 3.36135C55.2171 3.36135 55.2668 3.3519 55.2668 3.34035C55.2668 3.3272 55.4328 3.31935 55.7094 3.31935C55.986 3.31935 56.152 3.3272 56.152 3.34035ZM63.7864 3.34035C63.7864 3.3519 63.8362 3.36135 63.897 3.36135C63.9579 3.36135 64.0077 3.3708 64.0077 3.38235C64.0077 3.3939 64.045 3.40335 64.0907 3.40335C64.1363 3.40335 64.1737 3.4128 64.1737 3.42435C64.1737 3.4359 64.211 3.4454 64.2566 3.4454C64.3023 3.4454 64.3396 3.45485 64.3396 3.4664C64.3396 3.47795 64.3645 3.4874 64.3949 3.4874C64.4254 3.4874 64.4503 3.49685 64.4503 3.5084C64.4503 3.51995 64.4724 3.5294 64.4995 3.5294C64.5265 3.5294 64.5666 3.5483 64.5886 3.57145C64.6106 3.59455 64.6445 3.61345 64.6641 3.61345C64.7107 3.61345 65.2801 4.04585 65.2801 4.08125C65.2801 4.0962 65.305 4.122 65.3354 4.13865C65.3658 4.1553 65.3907 4.18575 65.3907 4.2063C65.3907 4.22685 65.4032 4.2437 65.4184 4.2437C65.4337 4.2437 65.4461 4.2626 65.4461 4.2857C65.4461 4.3088 65.4585 4.32775 65.4738 4.32775C65.489 4.32775 65.5014 4.3561 65.5014 4.39075C65.5014 4.4254 65.5139 4.4538 65.5291 4.4538C65.5443 4.4538 65.5567 4.4727 65.5567 4.4958C65.5567 4.5189 65.5691 4.5378 65.5844 4.5378C65.5996 4.5378 65.6121 4.57565 65.6121 4.62185C65.6121 4.66805 65.6245 4.7059 65.6397 4.7059C65.657 4.7059 65.6674 4.83895 65.6674 5.06305C65.6674 5.2871 65.657 5.42015 65.6397 5.42015C65.6245 5.42015 65.6121 5.458 65.6121 5.5042C65.6121 5.5504 65.5996 5.58825 65.5844 5.58825C65.5691 5.58825 65.5567 5.6166 65.5567 5.65125C65.5567 5.6859 65.5443 5.7143 65.5291 5.7143C65.5139 5.7143 65.5014 5.74265 65.5014 5.7773C65.5014 5.81195 65.489 5.84035 65.4738 5.84035C65.4585 5.84035 65.4461 5.85925 65.4461 5.88235C65.4461 5.90545 65.4337 5.92435 65.4184 5.92435C65.4032 5.92435 65.3907 5.9412 65.3907 5.96175C65.3907 5.9823 65.3658 6.01275 65.3354 6.0294C65.305 6.04605 65.2801 6.0719 65.2801 6.08685C65.2801 6.12225 64.7661 6.5126 64.7195 6.5126C64.6999 6.5126 64.6658 6.5315 64.6439 6.5546C64.622 6.57775 64.5819 6.59665 64.5548 6.59665C64.5278 6.59665 64.5056 6.6061 64.5056 6.61765C64.5056 6.6292 64.4807 6.63865 64.4503 6.63865C64.4198 6.63865 64.3949 6.6481 64.3949 6.65965C64.3949 6.6712 64.3701 6.68065 64.3396 6.68065C64.3092 6.68065 64.2843 6.69015 64.2843 6.7017C64.2843 6.71325 64.2594 6.7227 64.229 6.7227C64.1986 6.7227 64.1737 6.73215 64.1737 6.7437C64.1737 6.75525 64.1363 6.7647 64.0907 6.7647C64.045 6.7647 64.0077 6.77415 64.0077 6.7857C64.0077 6.79725 63.9455 6.8067 63.8694 6.8067C63.7934 6.8067 63.7311 6.8162 63.7311 6.82775C63.7311 6.84065 63.5928 6.84875 63.3715 6.84875C63.1502 6.84875 63.0119 6.84065 63.0119 6.82775C63.0119 6.8162 62.9497 6.8067 62.8736 6.8067C62.7976 6.8067 62.7353 6.79725 62.7353 6.7857C62.7353 6.77415 62.698 6.7647 62.6523 6.7647C62.6066 6.7647 62.5693 6.75525 62.5693 6.7437C62.5693 6.73215 62.532 6.7227 62.4864 6.7227C62.4407 6.7227 62.4034 6.71325 62.4034 6.7017C62.4034 6.69015 62.3785 6.68065 62.3481 6.68065C62.3176 6.68065 62.2928 6.6712 62.2928 6.65965C62.2928 6.6481 62.2678 6.63865 62.2374 6.63865C62.207 6.63865 62.1821 6.6292 62.1821 6.61765C62.1821 6.6061 62.1599 6.59665 62.1328 6.59665C62.1058 6.59665 62.0657 6.57775 62.0438 6.5546C62.0218 6.5315 61.9878 6.5126 61.9681 6.5126C61.9215 6.5126 61.4629 6.16435 61.4629 6.1289C61.4629 6.11395 61.438 6.0881 61.4076 6.07145C61.3771 6.05475 61.3523 6.02435 61.3523 6.00375C61.3523 5.9832 61.3398 5.9664 61.3246 5.9664C61.3094 5.9664 61.2969 5.9475 61.2969 5.92435C61.2969 5.90125 61.2844 5.88235 61.2692 5.88235C61.254 5.88235 61.2416 5.86345 61.2416 5.84035C61.2416 5.81725 61.2292 5.7983 61.2139 5.7983C61.1987 5.7983 61.1863 5.7794 61.1863 5.7563C61.1863 5.7332 61.1738 5.7143 61.1586 5.7143C61.1434 5.7143 61.1309 5.6859 61.1309 5.65125C61.1309 5.6166 61.1185 5.58825 61.1033 5.58825C61.0881 5.58825 61.0756 5.54095 61.0756 5.4832C61.0756 5.4254 61.0632 5.37815 61.048 5.37815C61.0308 5.37815 61.0203 5.2591 61.0203 5.06305C61.0203 4.86695 61.0308 4.7479 61.048 4.7479C61.0632 4.7479 61.0756 4.7101 61.0756 4.66385C61.0756 4.61765 61.0881 4.57985 61.1033 4.57985C61.1185 4.57985 61.1309 4.55145 61.1309 4.5168C61.1309 4.48215 61.1434 4.4538 61.1586 4.4538C61.1738 4.4538 61.1863 4.43485 61.1863 4.41175C61.1863 4.38865 61.1987 4.36975 61.2139 4.36975C61.2292 4.36975 61.2416 4.34345 61.2416 4.31135C61.2416 4.2771 61.2644 4.2405 61.2969 4.2227C61.3274 4.20605 61.3523 4.17765 61.3523 4.15965C61.3523 4.14165 61.3771 4.1133 61.4076 4.09665C61.438 4.08 61.4629 4.0541 61.4629 4.0392C61.4629 4.00375 61.9215 3.65545 61.9681 3.65545C61.9878 3.65545 62.0218 3.63655 62.0438 3.61345C62.0657 3.59035 62.1058 3.57145 62.1328 3.57145C62.1599 3.57145 62.1821 3.56195 62.1821 3.5504C62.1821 3.53885 62.207 3.5294 62.2374 3.5294C62.2678 3.5294 62.2928 3.51995 62.2928 3.5084C62.2928 3.49685 62.3176 3.4874 62.3481 3.4874C62.3785 3.4874 62.4034 3.47795 62.4034 3.4664C62.4034 3.45485 62.4282 3.4454 62.4587 3.4454C62.4891 3.4454 62.514 3.4359 62.514 3.42435C62.514 3.4128 62.5513 3.40335 62.597 3.40335C62.6427 3.40335 62.68 3.3939 62.68 3.38235C62.68 3.3708 62.7298 3.36135 62.7906 3.36135C62.8515 3.36135 62.9013 3.3519 62.9013 3.34035C62.9013 3.3272 63.0672 3.31935 63.3438 3.31935C63.6205 3.31935 63.7864 3.3272 63.7864 3.34035ZM6.85997 3.40335C6.85997 3.42645 6.87241 3.4454 6.88762 3.4454C6.90282 3.4454 6.91527 3.47375 6.91527 3.5084C6.91527 3.54305 6.92771 3.57145 6.94291 3.57145C6.95812 3.57145 6.97056 3.5998 6.97056 3.63445C6.97056 3.6691 6.98301 3.6975 6.99828 3.6975C7.01349 3.6975 7.02593 3.72585 7.02593 3.7605C7.02593 3.79515 7.03837 3.82355 7.05358 3.82355C7.06879 3.82355 7.08123 3.8519 7.08123 3.88655C7.08123 3.9212 7.09367 3.9496 7.10888 3.9496C7.12409 3.9496 7.13653 3.9874 7.13653 4.0336C7.13653 4.07985 7.14897 4.11765 7.16425 4.11765C7.17945 4.11765 7.1919 4.146 7.1919 4.18065C7.1919 4.21535 7.20434 4.2437 7.21955 4.2437C7.23475 4.2437 7.2472 4.27205 7.2472 4.3067C7.2472 4.3414 7.25964 4.36975 7.27485 4.36975C7.29005 4.36975 7.3025 4.3981 7.3025 4.43275C7.3025 4.46745 7.31494 4.4958 7.33021 4.4958C7.34542 4.4958 7.35786 4.52415 7.35786 4.5588C7.35786 4.5935 7.37031 4.62185 7.38551 4.62185C7.40072 4.62185 7.41316 4.6502 7.41316 4.68485C7.41316 4.71955 7.42561 4.7479 7.44081 4.7479C7.45602 4.7479 7.46846 4.77625 7.46846 4.8109C7.46846 4.8456 7.4809 4.87395 7.49618 4.87395C7.51139 4.87395 7.52383 4.91175 7.52383 4.958C7.52383 5.0042 7.53627 5.042 7.55148 5.042C7.56669 5.042 7.57913 5.0704 7.57913 5.10505C7.57913 5.1397 7.59157 5.16805 7.60678 5.16805C7.62199 5.16805 7.63443 5.19645 7.63443 5.2311C7.63443 5.26575 7.64687 5.2941 7.66214 5.2941C7.67735 5.2941 7.68979 5.3225 7.68979 5.35715C7.68979 5.3918 7.70224 5.42015 7.71744 5.42015C7.73265 5.42015 7.74509 5.44855 7.74509 5.4832C7.74509 5.51785 7.75754 5.5462 7.77274 5.5462C7.78795 5.5462 7.80039 5.5746 7.80039 5.60925C7.80039 5.6439 7.81284 5.67225 7.82811 5.67225C7.84332 5.67225 7.85576 5.70065 7.85576 5.7353C7.85576 5.7843 7.86801 5.7983 7.91106 5.7983C7.95412 5.7983 7.96636 5.7843 7.96636 5.7353C7.96636 5.70065 7.9788 5.67225 7.99408 5.67225C8.00928 5.67225 8.02173 5.6439 8.02173 5.60925C8.02173 5.5746 8.03417 5.5462 8.04938 5.5462C8.06458 5.5462 8.07703 5.51785 8.07703 5.4832C8.07703 5.44855 8.08947 5.42015 8.10468 5.42015C8.11988 5.42015 8.13233 5.3918 8.13233 5.35715C8.13233 5.3225 8.14477 5.2941 8.16004 5.2941C8.17525 5.2941 8.18769 5.26575 8.18769 5.2311C8.18769 5.19645 8.20014 5.16805 8.21534 5.16805C8.23055 5.16805 8.24299 5.1397 8.24299 5.10505C8.24299 5.0704 8.25543 5.042 8.27064 5.042C8.28585 5.042 8.29829 5.01365 8.29829 4.979C8.29829 4.94435 8.31073 4.91595 8.32601 4.91595C8.34122 4.91595 8.35366 4.8876 8.35366 4.85295C8.35366 4.8183 8.3661 4.7899 8.38131 4.7899C8.39652 4.7899 8.40896 4.76155 8.40896 4.7269C8.40896 4.69225 8.4214 4.66385 8.43661 4.66385C8.45181 4.66385 8.46426 4.6355 8.46426 4.60085C8.46426 4.5662 8.47677 4.5378 8.49197 4.5378C8.50718 4.5378 8.51962 4.50945 8.51962 4.4748C8.51962 4.44015 8.53207 4.41175 8.54727 4.41175C8.56248 4.41175 8.57492 4.3834 8.57492 4.34875C8.57492 4.3141 8.58737 4.2857 8.60257 4.2857C8.61778 4.2857 8.63022 4.25735 8.63022 4.2227C8.63022 4.18805 8.64273 4.15965 8.65794 4.15965C8.67315 4.15965 8.68559 4.1313 8.68559 4.09665C8.68559 4.06195 8.69803 4.0336 8.71324 4.0336C8.72845 4.0336 8.74089 4.00525 8.74089 3.9706C8.74089 3.9359 8.75333 3.90755 8.76854 3.90755C8.78375 3.90755 8.79619 3.8792 8.79619 3.84455C8.79619 3.80985 8.8087 3.7815 8.82391 3.7815C8.83911 3.7815 8.85156 3.75315 8.85156 3.7185C8.85156 3.6838 8.864 3.65545 8.87921 3.65545C8.89441 3.65545 8.90686 3.6271 8.90686 3.59245C8.90686 3.55775 8.9193 3.5294 8.93451 3.5294C8.94971 3.5294 8.96216 3.5051 8.96216 3.4754C8.96216 3.37935 9.01653 3.36135 9.306 3.36135C9.55229 3.36135 9.57072 3.36425 9.57072 3.40335C9.57072 3.42645 9.58316 3.4454 9.59837 3.4454C9.61358 3.4454 9.62602 3.47375 9.62602 3.5084C9.62602 3.54305 9.63853 3.57145 9.65374 3.57145C9.66894 3.57145 9.68139 3.5998 9.68139 3.63445C9.68139 3.6691 9.69383 3.6975 9.70903 3.6975C9.72424 3.6975 9.73668 3.72585 9.73668 3.7605C9.73668 3.79515 9.74913 3.82355 9.76433 3.82355C9.77954 3.82355 9.79205 3.8519 9.79205 3.88655C9.79205 3.9212 9.80449 3.9496 9.8197 3.9496C9.83491 3.9496 9.84735 3.97795 9.84735 4.0126C9.84735 4.04725 9.85979 4.07565 9.875 4.07565C9.89021 4.07565 9.90265 4.104 9.90265 4.13865C9.90265 4.1733 9.91509 4.2017 9.9303 4.2017C9.94551 4.2017 9.95802 4.23005 9.95802 4.2647C9.95802 4.29935 9.97046 4.32775 9.98567 4.32775C10.0009 4.32775 10.0133 4.3561 10.0133 4.39075C10.0133 4.4254 10.0258 4.4538 10.041 4.4538C10.0562 4.4538 10.0686 4.48215 10.0686 4.5168C10.0686 4.55145 10.0811 4.57985 10.0963 4.57985C10.1115 4.57985 10.124 4.61765 10.124 4.66385C10.124 4.7101 10.1364 4.7479 10.1516 4.7479C10.1668 4.7479 10.1793 4.77625 10.1793 4.8109C10.1793 4.8456 10.1917 4.87395 10.2069 4.87395C10.2221 4.87395 10.2346 4.9023 10.2346 4.93695C10.2346 4.97165 10.247 5 10.2622 5C10.2774 5 10.2899 5.02835 10.2899 5.06305C10.2899 5.0977 10.3024 5.12605 10.3176 5.12605C10.3328 5.12605 10.3452 5.1544 10.3452 5.1891C10.3452 5.22375 10.3577 5.2521 10.3729 5.2521C10.3881 5.2521 10.4005 5.28045 10.4005 5.31515C10.4005 5.3498 10.413 5.37815 10.4282 5.37815C10.4434 5.37815 10.4559 5.4065 10.4559 5.4412C10.4559 5.47585 10.4684 5.5042 10.4836 5.5042C10.4988 5.5042 10.5112 5.53255 10.5112 5.56725C10.5112 5.6019 10.5237 5.63025 10.5389 5.63025C10.5541 5.63025 10.5665 5.6586 10.5665 5.6933C10.5665 5.72795 10.579 5.7563 10.5942 5.7563C10.6094 5.7563 10.6219 5.78465 10.6219 5.81935C10.6219 5.854 10.6343 5.88235 10.6495 5.88235C10.6647 5.88235 10.6772 5.854 10.6772 5.81935C10.6772 5.78465 10.6896 5.7563 10.7048 5.7563C10.72 5.7563 10.7325 5.72795 10.7325 5.6933C10.7325 5.6586 10.7449 5.63025 10.7601 5.63025C10.7753 5.63025 10.7878 5.6019 10.7878 5.56725C10.7878 5.53255 10.8003 5.5042 10.8155 5.5042C10.8307 5.5042 10.8431 5.47585 10.8431 5.4412C10.8431 5.4065 10.8556 5.37815 10.8708 5.37815C10.886 5.37815 10.8984 5.34035 10.8984 5.2941C10.8984 5.2479 10.9109 5.2101 10.9261 5.2101C10.9413 5.2101 10.9538 5.1817 10.9538 5.14705C10.9538 5.1124 10.9663 5.08405 10.9815 5.08405C10.9967 5.08405 11.0091 5.05565 11.0091 5.021C11.0091 4.98635 11.0216 4.958 11.0368 4.958C11.052 4.958 11.0644 4.9296 11.0644 4.89495C11.0644 4.8603 11.0769 4.83195 11.0921 4.83195C11.1073 4.83195 11.1198 4.80355 11.1198 4.7689C11.1198 4.73425 11.1322 4.7059 11.1474 4.7059C11.1626 4.7059 11.1751 4.6775 11.1751 4.64285C11.1751 4.6082 11.1875 4.57985 11.2027 4.57985C11.2179 4.57985 11.2304 4.55145 11.2304 4.5168C11.2304 4.48215 11.2428 4.4538 11.258 4.4538C11.2733 4.4538 11.2857 4.4254 11.2857 4.39075C11.2857 4.3561 11.2982 4.32775 11.3134 4.32775C11.3286 4.32775 11.341 4.2899 11.341 4.2437C11.341 4.1975 11.3535 4.15965 11.3687 4.15965C11.3839 4.15965 11.3963 4.1313 11.3963 4.09665C11.3963 4.06195 11.4088 4.0336 11.424 4.0336C11.4393 4.0336 11.4517 4.00525 11.4517 3.9706C11.4517 3.9359 11.4642 3.90755 11.4794 3.90755C11.4946 3.90755 11.507 3.8792 11.507 3.84455C11.507 3.80985 11.5195 3.7815 11.5347 3.7815C11.5499 3.7815 11.5623 3.75315 11.5623 3.7185C11.5623 3.6838 11.5748 3.65545 11.59 3.65545C11.6052 3.65545 11.6177 3.6271 11.6177 3.59245C11.6177 3.55775 11.6301 3.5294 11.6453 3.5294C11.6605 3.5294 11.673 3.5051 11.673 3.4754C11.673 3.3758 11.7236 3.36135 12.0721 3.36135H12.3921V3.42435C12.3921 3.45905 12.3797 3.4874 12.3645 3.4874C12.3493 3.4874 12.3368 3.51575 12.3368 3.5504C12.3368 3.5851 12.3244 3.61345 12.3092 3.61345C12.2689 3.61345 12.2752 3.7343 12.3161 3.7454C12.3362 3.7508 12.3404 3.76255 12.3261 3.7734C12.3119 3.7842 12.2964 3.78105 12.2892 3.76575C12.266 3.7163 12.2262 3.73945 12.2262 3.8025C12.2262 3.8372 12.2137 3.86555 12.1985 3.86555C12.1833 3.86555 12.1709 3.8939 12.1709 3.92855C12.1709 3.96325 12.1584 3.9916 12.1432 3.9916C12.128 3.9916 12.1156 4.01995 12.1156 4.0546C12.1156 4.0893 12.1031 4.11765 12.0879 4.11765C12.0726 4.11765 12.0602 4.15545 12.0602 4.2017C12.0602 4.2479 12.0478 4.2857 12.0326 4.2857C12.0173 4.2857 12.0049 4.3141 12.0049 4.34875C12.0049 4.3834 11.9925 4.41175 11.9773 4.41175C11.962 4.41175 11.9496 4.44015 11.9496 4.4748C11.9496 4.50945 11.9372 4.5378 11.9219 4.5378C11.9067 4.5378 11.8942 4.5662 11.8942 4.60085C11.8942 4.6355 11.8818 4.66385 11.8666 4.66385C11.8514 4.66385 11.8389 4.69225 11.8389 4.7269C11.8389 4.76155 11.8265 4.7899 11.8113 4.7899C11.7961 4.7899 11.7836 4.8183 11.7836 4.85295C11.7836 4.8876 11.7712 4.91595 11.7559 4.91595C11.7407 4.91595 11.7283 4.94435 11.7283 4.979C11.7283 5.01365 11.7158 5.042 11.7006 5.042C11.6854 5.042 11.673 5.0704 11.673 5.10505C11.673 5.1397 11.6605 5.16805 11.6453 5.16805C11.6301 5.16805 11.6177 5.19645 11.6177 5.2311C11.6177 5.26575 11.6052 5.2941 11.59 5.2941C11.5748 5.2941 11.5623 5.33195 11.5623 5.37815C11.5623 5.42435 11.5499 5.4622 11.5347 5.4622C11.5195 5.4622 11.507 5.49055 11.507 5.5252C11.507 5.55985 11.4946 5.58825 11.4794 5.58825C11.4642 5.58825 11.4517 5.6166 11.4517 5.65125C11.4517 5.6859 11.4393 5.7143 11.424 5.7143C11.4088 5.7143 11.3963 5.74265 11.3963 5.7773C11.3963 5.81195 11.3839 5.84035 11.3687 5.84035C11.3535 5.84035 11.341 5.8687 11.341 5.90335C11.341 5.93805 11.3286 5.9664 11.3134 5.9664C11.2982 5.9664 11.2857 5.99475 11.2857 6.0294C11.2857 6.0641 11.2733 6.09245 11.258 6.09245C11.2428 6.09245 11.2304 6.1208 11.2304 6.15545C11.2304 6.19015 11.2179 6.2185 11.2027 6.2185C11.1875 6.2185 11.1751 6.24685 11.1751 6.2815C11.1751 6.3162 11.1626 6.34455 11.1474 6.34455C11.1322 6.34455 11.1198 6.3729 11.1198 6.40755C11.1198 6.44225 11.1073 6.4706 11.0921 6.4706C11.0769 6.4706 11.0644 6.49895 11.0644 6.5336C11.0644 6.5683 11.052 6.59665 11.0368 6.59665C11.0216 6.59665 11.0091 6.63445 11.0091 6.68065V6.7647H10.6772C10.3637 6.7647 10.3452 6.76235 10.3452 6.7227C10.3452 6.6996 10.3328 6.68065 10.3176 6.68065C10.3024 6.68065 10.2899 6.6523 10.2899 6.61765C10.2899 6.583 10.2774 6.5546 10.2622 6.5546C10.247 6.5546 10.2346 6.52625 10.2346 6.4916C10.2346 6.45695 10.2221 6.42855 10.2069 6.42855C10.1917 6.42855 10.1793 6.4002 10.1793 6.36555C10.1793 6.3309 10.1668 6.3025 10.1516 6.3025C10.1364 6.3025 10.124 6.27415 10.124 6.2395C10.124 6.20485 10.1115 6.17645 10.0963 6.17645C10.0811 6.17645 10.0686 6.1481 10.0686 6.11345C10.0686 6.0788 10.0562 6.0504 10.041 6.0504C10.0258 6.0504 10.0133 6.02205 10.0133 5.9874C10.0133 5.95275 10.0009 5.92435 9.98567 5.92435C9.97046 5.92435 9.95802 5.896 9.95802 5.86135C9.95802 5.8267 9.94551 5.7983 9.9303 5.7983C9.91509 5.7983 9.90265 5.76995 9.90265 5.7353C9.90265 5.70065 9.89021 5.67225 9.875 5.67225C9.85979 5.67225 9.84735 5.6439 9.84735 5.60925C9.84735 5.5746 9.83491 5.5462 9.8197 5.5462C9.80449 5.5462 9.79205 5.51785 9.79205 5.4832C9.79205 5.44855 9.77954 5.42015 9.76433 5.42015C9.74913 5.42015 9.73668 5.3918 9.73668 5.35715C9.73668 5.3225 9.72424 5.2941 9.70903 5.2941C9.69383 5.2941 9.68139 5.26575 9.68139 5.2311C9.68139 5.19645 9.66894 5.16805 9.65374 5.16805C9.63853 5.16805 9.62602 5.1397 9.62602 5.10505C9.62602 5.0704 9.61358 5.042 9.59837 5.042C9.58316 5.042 9.57072 5.01365 9.57072 4.979C9.57072 4.94435 9.55828 4.91595 9.54307 4.91595C9.52786 4.91595 9.51542 4.8876 9.51542 4.85295C9.51542 4.8183 9.50298 4.7899 9.48777 4.7899C9.47256 4.7899 9.46005 4.76155 9.46005 4.7269C9.46005 4.69225 9.44761 4.66385 9.4324 4.66385C9.4172 4.66385 9.40475 4.6355 9.40475 4.60085C9.40475 4.5662 9.39231 4.5378 9.3771 4.5378C9.3619 4.5378 9.34945 4.50945 9.34945 4.4748C9.34945 4.44015 9.33701 4.41175 9.3218 4.41175C9.3066 4.41175 9.29409 4.39285 9.29409 4.36975C9.29409 4.34665 9.28164 4.32775 9.26644 4.32775C9.25123 4.32775 9.23879 4.3561 9.23879 4.39075C9.23879 4.4254 9.22634 4.4538 9.21114 4.4538C9.19593 4.4538 9.18349 4.48215 9.18349 4.5168C9.18349 4.55145 9.17104 4.57985 9.15584 4.57985C9.14063 4.57985 9.12812 4.6082 9.12812 4.64285C9.12812 4.6775 9.11568 4.7059 9.10047 4.7059C9.08526 4.7059 9.07282 4.73425 9.07282 4.7689C9.07282 4.80355 9.06038 4.83195 9.04517 4.83195C9.02996 4.83195 9.01752 4.8603 9.01752 4.89495C9.01752 4.9296 9.00508 4.958 8.98987 4.958C8.97466 4.958 8.96216 4.98635 8.96216 5.021C8.96216 5.05565 8.94971 5.08405 8.93451 5.08405C8.9193 5.08405 8.90686 5.1124 8.90686 5.14705C8.90686 5.1817 8.89441 5.2101 8.87921 5.2101C8.864 5.2101 8.85156 5.23845 8.85156 5.2731C8.85156 5.30775 8.83911 5.33615 8.82391 5.33615C8.8087 5.33615 8.79619 5.37395 8.79619 5.42015C8.79619 5.4664 8.78375 5.5042 8.76854 5.5042C8.75333 5.5042 8.74089 5.53255 8.74089 5.56725C8.74089 5.6019 8.72845 5.63025 8.71324 5.63025C8.69803 5.63025 8.68559 5.6586 8.68559 5.6933C8.68559 5.72795 8.67315 5.7563 8.65794 5.7563C8.64273 5.7563 8.63022 5.78465 8.63022 5.81935C8.63022 5.854 8.61778 5.88235 8.60257 5.88235C8.58737 5.88235 8.57492 5.9107 8.57492 5.9454C8.57492 5.98005 8.56248 6.0084 8.54727 6.0084C8.53207 6.0084 8.51962 6.03675 8.51962 6.07145C8.51962 6.1061 8.50718 6.13445 8.49197 6.13445C8.47677 6.13445 8.46426 6.1628 8.46426 6.1975C8.46426 6.23215 8.45181 6.2605 8.43661 6.2605C8.4214 6.2605 8.40896 6.28885 8.40896 6.32355C8.40896 6.3582 8.39652 6.38655 8.38131 6.38655C8.3661 6.38655 8.35366 6.4149 8.35366 6.4496C8.35366 6.48425 8.34122 6.5126 8.32601 6.5126C8.31073 6.5126 8.29829 6.54095 8.29829 6.57565C8.29829 6.6103 8.28585 6.63865 8.27064 6.63865C8.25543 6.63865 8.24299 6.667 8.24299 6.7017V6.7647H7.91106C7.59756 6.7647 7.57913 6.76235 7.57913 6.7227C7.57913 6.6996 7.56669 6.68065 7.55148 6.68065C7.53627 6.68065 7.52383 6.6523 7.52383 6.61765C7.52383 6.583 7.51139 6.5546 7.49618 6.5546C7.4809 6.5546 7.46846 6.52625 7.46846 6.4916C7.46846 6.45695 7.45602 6.42855 7.44081 6.42855C7.42561 6.42855 7.41316 6.39075 7.41316 6.34455C7.41316 6.2983 7.40072 6.2605 7.38551 6.2605C7.37031 6.2605 7.35786 6.23215 7.35786 6.1975C7.35786 6.1628 7.34542 6.13445 7.33021 6.13445C7.31494 6.13445 7.3025 6.1061 7.3025 6.07145C7.3025 6.03675 7.29005 6.0084 7.27485 6.0084C7.25964 6.0084 7.2472 5.98005 7.2472 5.9454C7.2472 5.9107 7.23475 5.88235 7.21955 5.88235C7.20434 5.88235 7.1919 5.854 7.1919 5.81935C7.1919 5.78465 7.17945 5.7563 7.16425 5.7563C7.14897 5.7563 7.13653 5.72795 7.13653 5.6933C7.13653 5.6586 7.12409 5.63025 7.10888 5.63025C7.09367 5.63025 7.08123 5.6019 7.08123 5.56725C7.08123 5.53255 7.06879 5.5042 7.05358 5.5042C7.03837 5.5042 7.02593 5.47585 7.02593 5.4412C7.02593 5.4065 7.01349 5.37815 6.99828 5.37815C6.98301 5.37815 6.97056 5.3498 6.97056 5.31515C6.97056 5.28045 6.95812 5.2521 6.94291 5.2521C6.92771 5.2521 6.91527 5.2143 6.91527 5.16805C6.91527 5.12185 6.90282 5.08405 6.88762 5.08405C6.87241 5.08405 6.85997 5.05565 6.85997 5.021C6.85997 4.98635 6.84752 4.958 6.83231 4.958C6.81704 4.958 6.8046 4.9296 6.8046 4.89495C6.8046 4.8603 6.79216 4.83195 6.77695 4.83195C6.76174 4.83195 6.7493 4.80355 6.7493 4.7689C6.7493 4.73425 6.73686 4.7059 6.72165 4.7059C6.70644 4.7059 6.694 4.6775 6.694 4.64285C6.694 4.6082 6.68156 4.57985 6.66635 4.57985C6.65108 4.57985 6.63863 4.55145 6.63863 4.5168C6.63863 4.48215 6.62619 4.4538 6.61098 4.4538C6.59578 4.4538 6.58333 4.4254 6.58333 4.39075C6.58333 4.3561 6.57088 4.32775 6.55567 4.32775C6.54046 4.32775 6.52801 4.29935 6.52801 4.2647C6.52801 4.23005 6.51556 4.2017 6.50035 4.2017C6.48514 4.2017 6.47269 4.1733 6.47269 4.13865C6.47269 4.104 6.46024 4.07565 6.44503 4.07565C6.42982 4.07565 6.41737 4.0378 6.41737 3.9916C6.41737 3.9454 6.40492 3.90755 6.3897 3.90755C6.37449 3.90755 6.36205 3.8792 6.36205 3.84455C6.36205 3.80985 6.3496 3.7815 6.33438 3.7815C6.31917 3.7815 6.30672 3.75315 6.30672 3.7185C6.30672 3.6838 6.29427 3.65545 6.27907 3.65545C6.26385 3.65545 6.2514 3.6271 6.2514 3.59245C6.2514 3.55775 6.23895 3.5294 6.22374 3.5294C6.20852 3.5294 6.19608 3.4916 6.19608 3.4454V3.36135H6.52801C6.84147 3.36135 6.85997 3.3637 6.85997 3.40335ZM19.4734 3.61345V3.86555H18.2287H16.9839V4.36975V4.87395H18.0627H19.1414V5.10505V5.33615H18.0627H16.9839V5.81935V6.3025H18.2287H19.4734V6.5336V6.7647H17.8967H16.32V5.06305V3.36135H17.8967H19.4734V3.61345ZM24.3417 4.83195V6.3025H25.5312H26.7206V6.5336V6.7647H25.1992H23.6779V5.06305V3.36135H24.0098H24.3417V4.83195ZM31.3677 4.83195V6.3025H32.5847H33.8018V6.5336V6.7647H32.2805H30.7591V5.06305V3.36135H31.0634H31.3677V4.83195ZM40.3851 4.09665V4.83195H41.298H42.2108V5.08405V5.33615H41.298H40.3851V6.07145V6.8067H40.0532H39.7213V6.07145V5.33615H38.8085H37.8956V5.08405V4.83195H38.8085H39.7213V4.09665V3.36135H40.0532H40.3851V4.09665ZM70.9782 3.38235C70.9782 3.39405 71.0519 3.40335 71.1441 3.40335C71.2363 3.40335 71.31 3.4127 71.31 3.42435C71.31 3.4359 71.36 3.4454 71.4206 3.4454C71.4818 3.4454 71.5312 3.45485 71.5312 3.4664C71.5312 3.47795 71.5562 3.4874 71.5865 3.4874C71.6175 3.4874 71.6425 3.49685 71.6425 3.5084C71.6425 3.51995 71.6668 3.5294 71.6978 3.5294C71.7281 3.5294 71.7531 3.53885 71.7531 3.5504C71.7531 3.56195 71.7774 3.57145 71.8084 3.57145C71.8386 3.57145 71.8637 3.5809 71.8637 3.59245C71.8637 3.604 71.8834 3.61345 71.9078 3.61345C71.9321 3.61345 71.9868 3.6418 72.0296 3.67645C72.0724 3.71115 72.1211 3.7395 72.1389 3.7395C72.1797 3.7395 72.3061 3.8355 72.3061 3.86665C72.3061 3.8799 72.3436 3.9172 72.389 3.9496C72.4344 3.98195 72.472 4.0215 72.472 4.0374C72.472 4.0533 72.497 4.08 72.5273 4.09665C72.5576 4.1133 72.5826 4.14375 72.5826 4.1643C72.5826 4.18485 72.5951 4.2017 72.6102 4.2017C72.6254 4.2017 72.6379 4.23005 72.6379 4.2647C72.6379 4.29935 72.6504 4.32775 72.6655 4.32775C72.6807 4.32775 72.6932 4.3561 72.6932 4.39075C72.6932 4.4254 72.7057 4.4538 72.7208 4.4538C72.736 4.4538 72.7485 4.48215 72.7485 4.5168C72.7485 4.55145 72.761 4.57985 72.7761 4.57985C72.7919 4.57985 72.8038 4.64285 72.8038 4.7269C72.8038 4.8109 72.8156 4.87395 72.8314 4.87395C72.8479 4.87395 72.8591 4.958 72.8591 5.08405C72.8591 5.2101 72.8479 5.2941 72.8314 5.2941C72.8156 5.2941 72.8038 5.35715 72.8038 5.4412C72.8038 5.5252 72.7919 5.58825 72.7761 5.58825C72.761 5.58825 72.7485 5.6166 72.7485 5.65125C72.7485 5.6859 72.736 5.7143 72.7208 5.7143C72.7057 5.7143 72.6932 5.74265 72.6932 5.7773C72.6932 5.81195 72.6807 5.84035 72.6655 5.84035C72.6504 5.84035 72.6379 5.85925 72.6379 5.88235C72.6379 5.90545 72.6254 5.92435 72.6102 5.92435C72.5951 5.92435 72.5826 5.9433 72.5826 5.9664C72.5826 5.9895 72.5701 6.0084 72.5549 6.0084C72.5398 6.0084 72.5273 6.0273 72.5273 6.0504C72.5273 6.07355 72.5148 6.09245 72.4996 6.09245C72.4845 6.09245 72.472 6.10675 72.472 6.1242C72.472 6.16565 71.9598 6.5546 71.9051 6.5546C71.8821 6.5546 71.8637 6.5641 71.8637 6.57565C71.8637 6.5872 71.8386 6.59665 71.8084 6.59665C71.7774 6.59665 71.7531 6.6061 71.7531 6.61765C71.7531 6.6292 71.7281 6.63865 71.6978 6.63865C71.6668 6.63865 71.6425 6.6481 71.6425 6.65965C71.6425 6.6712 71.6049 6.68065 71.5589 6.68065C71.5134 6.68065 71.4759 6.69015 71.4759 6.7017C71.4759 6.71325 71.439 6.7227 71.393 6.7227C71.3475 6.7227 71.31 6.73215 71.31 6.7437C71.31 6.75735 70.8953 6.7647 70.1211 6.7647H68.9315V5.06305V3.36135H69.9552C70.6188 3.36135 70.9782 3.3687 70.9782 3.38235ZM55.3221 3.84455C55.3221 3.8561 55.2848 3.86555 55.2392 3.86555C55.1935 3.86555 55.1562 3.875 55.1562 3.88655C55.1562 3.8981 55.1313 3.90755 55.1009 3.90755C55.0704 3.90755 55.0455 3.917 55.0455 3.92855C55.0455 3.94015 55.0206 3.9496 54.9902 3.9496C54.9598 3.9496 54.9349 3.95905 54.9349 3.9706C54.9349 3.98215 54.9127 3.9916 54.8856 3.9916C54.8586 3.9916 54.8185 4.0105 54.7966 4.0336C54.7747 4.0567 54.7405 4.07565 54.7207 4.07565C54.6739 4.07565 54.3816 4.29755 54.3816 4.33315C54.3816 4.34815 54.3567 4.3741 54.3263 4.39075C54.2959 4.4074 54.271 4.43785 54.271 4.4584C54.271 4.47895 54.2586 4.4958 54.2434 4.4958C54.2282 4.4958 54.2157 4.5147 54.2157 4.5378C54.2157 4.5609 54.2032 4.57985 54.188 4.57985C54.1728 4.57985 54.1604 4.59875 54.1604 4.62185C54.1604 4.64495 54.1479 4.66385 54.1327 4.66385C54.1175 4.66385 54.1051 4.7017 54.1051 4.7479C54.1051 4.7941 54.0926 4.83195 54.0774 4.83195C54.0605 4.83195 54.0497 4.93 54.0497 5.08405C54.0497 5.2381 54.0605 5.33615 54.0774 5.33615C54.0926 5.33615 54.1051 5.37395 54.1051 5.42015C54.1051 5.4664 54.1175 5.5042 54.1327 5.5042C54.1479 5.5042 54.1604 5.5231 54.1604 5.5462C54.1604 5.56935 54.1728 5.58825 54.188 5.58825C54.2032 5.58825 54.2157 5.60715 54.2157 5.63025C54.2157 5.65335 54.2282 5.67225 54.2434 5.67225C54.2586 5.67225 54.271 5.6891 54.271 5.70965C54.271 5.7302 54.2959 5.76065 54.3263 5.7773C54.3567 5.79395 54.3816 5.8199 54.3816 5.8349C54.3816 5.87055 54.6739 6.09245 54.7207 6.09245C54.7405 6.09245 54.7747 6.11135 54.7966 6.13445C54.8185 6.15755 54.8586 6.17645 54.8856 6.17645C54.9127 6.17645 54.9349 6.1859 54.9349 6.1975C54.9349 6.20905 54.9598 6.2185 54.9902 6.2185C55.0206 6.2185 55.0455 6.22795 55.0455 6.2395C55.0455 6.25105 55.0704 6.2605 55.1009 6.2605C55.1313 6.2605 55.1562 6.26995 55.1562 6.2815C55.1562 6.29305 55.2059 6.3025 55.2668 6.3025C55.3277 6.3025 55.3774 6.31195 55.3774 6.32355C55.3774 6.33635 55.5065 6.34455 55.7094 6.34455C55.9123 6.34455 56.0414 6.33635 56.0414 6.32355C56.0414 6.31195 56.0911 6.3025 56.152 6.3025C56.2128 6.3025 56.2626 6.29305 56.2626 6.2815C56.2626 6.26995 56.2875 6.2605 56.3179 6.2605C56.3483 6.2605 56.3733 6.25105 56.3733 6.2395C56.3733 6.22795 56.3982 6.2185 56.4286 6.2185C56.459 6.2185 56.4839 6.20905 56.4839 6.1975C56.4839 6.1859 56.5088 6.17645 56.5392 6.17645C56.5697 6.17645 56.5945 6.167 56.5945 6.15545C56.5945 6.1439 56.6134 6.13445 56.6365 6.13445C56.6875 6.13445 57.0924 5.831 57.0924 5.7928C57.0924 5.7778 57.1173 5.75195 57.1477 5.7353C57.1782 5.71865 57.2031 5.6882 57.2031 5.66765C57.2031 5.6471 57.2156 5.63025 57.2308 5.63025C57.246 5.63025 57.2584 5.6019 57.2584 5.56725C57.2584 5.53255 57.2709 5.5042 57.2861 5.5042C57.3013 5.5042 57.3137 5.47585 57.3137 5.4412C57.3137 5.4065 57.3262 5.37815 57.3414 5.37815C57.3585 5.37815 57.3691 5.2661 57.3691 5.08405C57.3691 4.90195 57.3585 4.7899 57.3414 4.7899C57.3262 4.7899 57.3137 4.76155 57.3137 4.7269C57.3137 4.69225 57.3013 4.66385 57.2861 4.66385C57.2709 4.66385 57.2584 4.6355 57.2584 4.60085C57.2584 4.5662 57.246 4.5378 57.2308 4.5378C57.2156 4.5378 57.2031 4.521 57.2031 4.50045C57.2031 4.47985 57.1782 4.44945 57.1477 4.43275C57.1173 4.4161 57.0924 4.39025 57.0924 4.37525C57.0924 4.3398 56.6893 4.0336 56.6426 4.0336C56.6229 4.0336 56.5888 4.0147 56.5669 3.9916C56.545 3.9685 56.5049 3.9496 56.4778 3.9496C56.4507 3.9496 56.4286 3.94015 56.4286 3.92855C56.4286 3.917 56.3913 3.90755 56.3456 3.90755C56.2999 3.90755 56.2626 3.8981 56.2626 3.88655C56.2626 3.875 56.2253 3.86555 56.1796 3.86555C56.134 3.86555 56.0966 3.8561 56.0966 3.84455C56.0966 3.83155 55.9491 3.82355 55.7094 3.82355C55.4697 3.82355 55.3221 3.83155 55.3221 3.84455ZM62.9566 3.84455C62.9566 3.8561 62.9192 3.86555 62.8736 3.86555C62.828 3.86555 62.7906 3.875 62.7906 3.88655C62.7906 3.8981 62.7657 3.90755 62.7353 3.90755C62.7049 3.90755 62.68 3.917 62.68 3.92855C62.68 3.94015 62.6551 3.9496 62.6247 3.9496C62.5942 3.9496 62.5693 3.95905 62.5693 3.9706C62.5693 3.98215 62.5472 3.9916 62.5201 3.9916C62.493 3.9916 62.453 4.0105 62.431 4.0336C62.4091 4.0567 62.375 4.07565 62.3552 4.07565C62.3083 4.07565 62.0161 4.29755 62.0161 4.33315C62.0161 4.34815 61.9912 4.3741 61.9608 4.39075C61.9303 4.4074 61.9055 4.43785 61.9055 4.4584C61.9055 4.47895 61.893 4.4958 61.8778 4.4958C61.8626 4.4958 61.8502 4.5147 61.8502 4.5378C61.8502 4.5609 61.8377 4.57985 61.8225 4.57985C61.8073 4.57985 61.7948 4.59875 61.7948 4.62185C61.7948 4.64495 61.7823 4.66385 61.7671 4.66385C61.7519 4.66385 61.7395 4.7017 61.7395 4.7479C61.7395 4.7941 61.727 4.83195 61.7118 4.83195C61.6949 4.83195 61.6842 4.93 61.6842 5.08405C61.6842 5.2381 61.6949 5.33615 61.7118 5.33615C61.727 5.33615 61.7395 5.37395 61.7395 5.42015C61.7395 5.4664 61.7519 5.5042 61.7671 5.5042C61.7823 5.5042 61.7948 5.5231 61.7948 5.5462C61.7948 5.56935 61.8073 5.58825 61.8225 5.58825C61.8377 5.58825 61.8502 5.60715 61.8502 5.63025C61.8502 5.65335 61.8626 5.67225 61.8778 5.67225C61.893 5.67225 61.9055 5.6891 61.9055 5.70965C61.9055 5.7302 61.9303 5.76065 61.9608 5.7773C61.9912 5.79395 62.0161 5.8199 62.0161 5.8349C62.0161 5.87055 62.3083 6.09245 62.3552 6.09245C62.375 6.09245 62.4091 6.11135 62.431 6.13445C62.453 6.15755 62.493 6.17645 62.5201 6.17645C62.5472 6.17645 62.5693 6.1859 62.5693 6.1975C62.5693 6.20905 62.5942 6.2185 62.6247 6.2185C62.6551 6.2185 62.68 6.22795 62.68 6.2395C62.68 6.25105 62.7049 6.2605 62.7353 6.2605C62.7657 6.2605 62.7906 6.26995 62.7906 6.2815C62.7906 6.29305 62.8404 6.3025 62.9013 6.3025C62.9621 6.3025 63.0119 6.31195 63.0119 6.32355C63.0119 6.33635 63.141 6.34455 63.3438 6.34455C63.5467 6.34455 63.6758 6.33635 63.6758 6.32355C63.6758 6.31195 63.7255 6.3025 63.7864 6.3025C63.8473 6.3025 63.897 6.29305 63.897 6.2815C63.897 6.26995 63.9219 6.2605 63.9524 6.2605C63.9828 6.2605 64.0077 6.25105 64.0077 6.2395C64.0077 6.22795 64.0326 6.2185 64.063 6.2185C64.0934 6.2185 64.1184 6.20905 64.1184 6.1975C64.1184 6.1859 64.1405 6.17645 64.1676 6.17645C64.1946 6.17645 64.2347 6.15755 64.2566 6.13445C64.2786 6.11135 64.3127 6.09245 64.3324 6.09245C64.3792 6.09245 64.7269 5.82835 64.7269 5.79285C64.7269 5.77785 64.7518 5.75195 64.7822 5.7353C64.8127 5.71865 64.8375 5.6882 64.8375 5.66765C64.8375 5.6471 64.85 5.63025 64.8652 5.63025C64.8804 5.63025 64.8928 5.6019 64.8928 5.56725C64.8928 5.53255 64.9053 5.5042 64.9205 5.5042C64.9358 5.5042 64.9482 5.47585 64.9482 5.4412C64.9482 5.4065 64.9607 5.37815 64.9759 5.37815C64.993 5.37815 65.0035 5.2661 65.0035 5.08405C65.0035 4.90195 64.993 4.7899 64.9759 4.7899C64.9607 4.7899 64.9482 4.76155 64.9482 4.7269C64.9482 4.69225 64.9358 4.66385 64.9205 4.66385C64.9053 4.66385 64.8928 4.6355 64.8928 4.60085C64.8928 4.5662 64.8804 4.5378 64.8652 4.5378C64.85 4.5378 64.8375 4.521 64.8375 4.50045C64.8375 4.47985 64.8127 4.44945 64.7822 4.43275C64.7518 4.4161 64.7269 4.39025 64.7269 4.37525C64.7269 4.3398 64.3238 4.0336 64.277 4.0336C64.2574 4.0336 64.2233 4.0147 64.2013 3.9916C64.1794 3.9685 64.1393 3.9496 64.1123 3.9496C64.0852 3.9496 64.063 3.94015 64.063 3.92855C64.063 3.917 64.0257 3.90755 63.9801 3.90755C63.9344 3.90755 63.897 3.8981 63.897 3.88655C63.897 3.875 63.8597 3.86555 63.8141 3.86555C63.7684 3.86555 63.7311 3.8561 63.7311 3.84455C63.7311 3.83155 63.5835 3.82355 63.3438 3.82355C63.1041 3.82355 62.9566 3.83155 62.9566 3.84455ZM69.5951 5.08405V6.3025H70.287C70.7294 6.3025 70.9782 6.29495 70.9782 6.2815C70.9782 6.26995 71.0282 6.2605 71.0888 6.2605C71.15 6.2605 71.1994 6.25105 71.1994 6.2395C71.1994 6.22795 71.2369 6.2185 71.2824 6.2185C71.3284 6.2185 71.3653 6.20905 71.3653 6.1975C71.3653 6.1859 71.3903 6.17645 71.4206 6.17645C71.4516 6.17645 71.4759 6.167 71.4759 6.15545C71.4759 6.1439 71.495 6.13445 71.518 6.13445C71.5727 6.13445 71.919 5.87175 71.919 5.83025C71.919 5.81265 71.9315 5.7983 71.9466 5.7983C71.9618 5.7983 71.9743 5.7794 71.9743 5.7563C71.9743 5.7332 71.9868 5.7143 72.0019 5.7143C72.0171 5.7143 72.0296 5.6954 72.0296 5.67225C72.0296 5.64915 72.0421 5.63025 72.0572 5.63025C72.0724 5.63025 72.0849 5.6019 72.0849 5.56725C72.0849 5.53255 72.0974 5.5042 72.1125 5.5042C72.1277 5.5042 72.1402 5.45695 72.1402 5.39915C72.1402 5.3414 72.1527 5.2941 72.1678 5.2941C72.1843 5.2941 72.1955 5.2031 72.1955 5.06305C72.1955 4.92295 72.1843 4.83195 72.1678 4.83195C72.1527 4.83195 72.1402 4.7941 72.1402 4.7479C72.1402 4.7017 72.1277 4.66385 72.1125 4.66385C72.0974 4.66385 72.0849 4.6355 72.0849 4.60085C72.0849 4.5662 72.0724 4.5378 72.0572 4.5378C72.0421 4.5378 72.0296 4.5189 72.0296 4.4958C72.0296 4.4727 72.0171 4.4538 72.0019 4.4538C71.9868 4.4538 71.9743 4.43485 71.9743 4.41175C71.9743 4.38865 71.9618 4.36975 71.9466 4.36975C71.9315 4.36975 71.919 4.3554 71.919 4.33785C71.919 4.2963 71.5727 4.0336 71.518 4.0336C71.495 4.0336 71.4759 4.02415 71.4759 4.0126C71.4759 4.00105 71.4516 3.9916 71.4206 3.9916C71.3903 3.9916 71.3653 3.98215 71.3653 3.9706C71.3653 3.95905 71.341 3.9496 71.31 3.9496C71.2797 3.9496 71.2547 3.94015 71.2547 3.92855C71.2547 3.917 71.2053 3.90755 71.1441 3.90755C71.0835 3.90755 71.0335 3.8981 71.0335 3.88655C71.0335 3.8731 70.7754 3.86555 70.3146 3.86555H69.5951V5.08405ZM55.986 6.15545C55.986 6.167 55.9735 6.17645 55.9583 6.17645C55.9431 6.17645 55.9307 6.167 55.9307 6.15545C55.9307 6.1439 55.9431 6.13445 55.9583 6.13445C55.9735 6.13445 55.986 6.1439 55.986 6.15545ZM26.9972 6.9958C26.9972 7.00735 26.9848 7.0168 26.9695 7.0168C26.9543 7.0168 26.9419 7.00735 26.9419 6.9958C26.9419 6.98425 26.9543 6.9748 26.9695 6.9748C26.9848 6.9748 26.9972 6.98425 26.9972 6.9958ZM33.9678 6.9958C33.9678 7.00735 33.9553 7.0168 33.9401 7.0168C33.9249 7.0168 33.9125 7.00735 33.9125 6.9958C33.9125 6.98425 33.9249 6.9748 33.9401 6.9748C33.9553 6.9748 33.9678 6.98425 33.9678 6.9958Z" fill="white" fill-opacity="0.9"/>
</svg>
